<svg xmlns="http://www.w3.org/2000/svg" viewBox="0 0 500 500"> 
  <!-- Background circle -->
  <circle cx="250" cy="250" r="240" fill="white" stroke="#000" stroke-width="4"/>
  
  <!-- Outer ring -->
  <circle cx="250" cy="250" r="220" fill="white" stroke="#000" stroke-width="3"/>
  
  <!-- College name text path -->
  <path id="topCirclePath" d="M 70,250 A 180,180 0 0 1 430,250" fill="none"/>
  <text font-family="Arial, sans-serif" font-size="22" font-weight="bold" fill="#000" letter-spacing="0.5">
    <textPath href="#topCirclePath" startOffset="50%" text-anchor="middle">
      DESHMUKH COLLEGE OF PHARMACY KASAR SIRSI
      
    </textPath>
  </text>
  
  <!-- Inner circle -->
  <circle cx="250" cy="250" r="175" fill="white" stroke="#1E4E9D" stroke-width="2"/>
  
  <!-- Open book -->
  <path d="M 140,250 C 140,220 160,200 200,190 H 300 C 340,200 360,220 360,250 V 280 C 360,300 340,310 300,320 H 200 C 160,310 140,300 140,280 Z" fill="white" stroke="#000" stroke-width="2"/>
  <path d="M 250,190 V 320" stroke="#000" stroke-width="2"/>
  
  <!-- Book lines -->
  <path d="M 170,230 H 230" stroke="#000" stroke-width="1"/>
  <path d="M 170,245 H 230" stroke="#000" stroke-width="1"/>
  <path d="M 170,260 H 230" stroke="#000" stroke-width="1"/>
  <path d="M 170,275 H 230" stroke="#000" stroke-width="1"/>
  <path d="M 170,290 H 230" stroke="#000" stroke-width="1"/>
  <path d="M 270,230 H 330" stroke="#000" stroke-width="1"/>
  <path d="M 270,245 H 330" stroke="#000" stroke-width="1"/>
  <path d="M 270,260 H 330" stroke="#000" stroke-width="1"/>
  <path d="M 270,275 H 330" stroke="#000" stroke-width="1"/>
  <path d="M 270,290 H 330" stroke="#000" stroke-width="1"/>
  
  <!-- Mortar and Pestle -->
  <path d="M 190,230 C 170,230 170,250 190,260 C 210,270 210,230 190,230 Z" fill="#1E4E9D" stroke="#000" stroke-width="1.5"/>
  <path d="M 182,245 L 198,245 L 198,275 L 182,275 Z" fill="#C76200" stroke="#000" stroke-width="1.5"/>
  
  <!-- Medicine Flask -->
  <path d="M 300,220 L 310,220 L 310,235 C 320,245 325,260 320,275 C 315,285 305,285 300,275 C 295,260 300,245 310,235 L 300,235 Z" fill="#1E4E9D" stroke="#000" stroke-width="1.5"/>
  
  <!-- DNA Helix -->
  <path d="M 250,200 C 245,205 240,210 245,215 C 250,220 255,225 250,230 C 245,235 240,240 245,245 C 250,250 255,255 250,260 C 245,265 240,270 245,275 C 250,280 255,285 250,290 C 245,295 240,300 245,305 C 250,310 255,315 250,320" stroke="#C76200" stroke-width="2.5" fill="none"/>
  <path d="M 250,200 C 255,205 260,210 255,215 C 250,220 245,225 250,230 C 255,235 260,240 255,245 C 250,250 245,255 250,260 C 255,265 260,270 255,275 C 250,280 245,285 250,290 C 255,295 260,300 255,305 C 250,310 245,315 250,320" stroke="#C76200" stroke-width="2.5" fill="none"/>
  <path d="M 245,210 L 255,210" stroke="#1E4E9D" stroke-width="2"/>
  <path d="M 245,240 L 255,240" stroke="#1E4E9D" stroke-width="2"/>
  <path d="M 245,270 L 255,270" stroke="#1E4E9D" stroke-width="2"/>
  <path d="M 245,300 L 255,300" stroke="#1E4E9D" stroke-width="2"/>
  
  <!-- Medicine Pills -->
  <circle cx="195" cy="205" r="6" fill="#C76200" stroke="#000" stroke-width="1"/>
  <circle cx="215" cy="210" r="6" fill="#1E4E9D" stroke="#000" stroke-width="1"/>
  <ellipse cx="185" cy="225" rx="8" ry="5" fill="#1E4E9D" stroke="#000" stroke-width="1"/>
  <circle cx="285" cy="205" r="6" fill="#C76200" stroke="#000" stroke-width="1"/>
  <circle cx="310" cy="210" r="6" fill="#1E4E9D" stroke="#000" stroke-width="1"/>
  <ellipse cx="295" cy="290" rx="8" ry="5" fill="#C76200" stroke="#000" stroke-width="1"/>
  
  <!-- Urdu banner -->
  <path d="M 120,330 H 380 V 370 H 120 Z" fill="white" stroke="#000" stroke-width="2"/>
  <text x="250" y="358" font-family="'Noto Nastaliq Urdu', 'Jameel Noori Nastaleeq', serif" font-size="22" text-anchor="middle" fill="#000">
    رحيمانيه تعليمى سوسائٹی
  </text>
  
  <!-- Affiliation -->
  <rect x="100" y="380" width="300" height="25" fill="white" rx="3" ry="3"/>
  <text x="250" y="397" font-family="Arial, sans-serif" font-size="12" text-anchor="middle" fill="#000" font-weight="bold">
    Affiliated to Rahemaniya Taleemi Society, Nilanga
  </text>
  
  <!-- Ribbon -->
  <path d="M 100,410 L 80,435 L 100,460 H 400 L 420,435 L 400,410 Z" fill="white" stroke="#000" stroke-width="2"/>
  <path d="M 80,435 L 60,460 L 60,490 L 80,465 Z" fill="white" stroke="#000" stroke-width="2"/>
  <path d="M 420,435 L 440,460 L 440,490 L 420,465 Z" fill="white" stroke="#000" stroke-width="2"/>
  <text x="160" y="430" font-family="Arial, sans-serif" font-size="14" fill="#000" text-anchor="middle" font-weight="bold">
    Estd - 1976
  </text>
  <text x="340" y="430" font-family="Arial, sans-serif" font-size="14" fill="#000" text-anchor="middle" font-weight="bold">
    PCI Code: 825
  </text>
  
  <!-- Address -->
  <text x="250" y="448" font-family="Arial, sans-serif" font-size="14" fill="#000" text-anchor="middle" font-weight="bold">
    Kasar Sirsi, Tq. Nilanga, Dist. Latur
  </text>
</svg>
